<?xml version="1.0" encoding="utf-8"?>
<!-- Generator: Adobe Illustrator 27.5.0, SVG Export Plug-In . SVG Version: 6.00 Build 0)  -->
<svg version="1.1" id="Layer_1" xmlns="http://www.w3.org/2000/svg" xmlns:xlink="http://www.w3.org/1999/xlink" x="0px" y="0px"
	 viewBox="0 0 4000 4000" style="enable-background:new 0 0 4000 4000;" xml:space="preserve">
<g>
	<g>
		<rect style="fill:#FFFFFF;" width="4000" height="4000"/>
	</g>
	<g>
		<g>
			<circle style="fill:#F54C82;" cx="2021.972" cy="2203.086" r="1297.901"/>
		</g>
		<g>
			<g>
				<path style="fill:#F54C82;" d="M1890.033,659.561c64.592,21.619,119.201,82.248,119.201,82.248
					c42.37-41.2,79.96-74.432,142.94-107.908c20.298-10.761,36.857-22.578,50.11-35.058c67.683-63.57,50.825-143.936,16.882-187.949
					c-44.4-57.563-108.417-61.284-153.068-40.17c-41.813,19.72-65.806,62.512-65.806,62.512s-33.379-38.351-78.695-53.645
					c-29.906-10.12-65.342-9.237-96.319,9.47c-10.326,6.236-20.135,14.468-29.068,24.931
					C1730.83,490.36,1749.091,612.385,1890.033,659.561z"/>
			</g>
			<g style="opacity:0.6;">
				<path style="fill:#FFFFFF;" d="M1759.982,510.971c6.021-13.899,14.236-27.114,24.588-39.193
					c8.933-10.464,24.356-27.374,34.681-33.609c30.978-18.707,72.81-17.488,102.715-7.367
					c45.317,15.293,82.299,43.037,82.299,43.037s18.134-29.69,59.948-49.409c44.651-21.114,106.953-26.136,151.353,31.427
					c16.312,21.14,20.63,63.471,21.554,95.51c23.869-52.234,7.903-106.898-17.955-140.472
					c-44.4-57.563-108.417-61.284-153.068-40.17c-41.813,19.72-65.806,62.512-65.806,62.512s-33.379-38.351-78.695-53.645
					c-29.906-10.12-65.342-9.237-96.319,9.47c-10.326,6.236-20.135,14.468-29.068,24.931
					C1772.139,442.112,1759.382,476.503,1759.982,510.971z"/>
			</g>
			<g>
				<g>
					<path style="fill:#FFC099;" d="M1445.11,3430.545c4.357,36.58-2.641,133.803,37.234,188.401
						c0,0,475.152,128.79,884.825-105.385c0,0,7.374-93.597-30.671-226.225c0,0,41.148-90.222,23.596-206.77
						c-17.607-116.541-86.016-208.51-127.951-225.763c0,0,35.548-145.175,112.169-280.337
						c51.933-91.673,148.065-198.901,214.127-265.337c31.401-31.494,55.994-53.835,65.88-60.964
						c29.245-21.115,99.256-94.084,102.239-212.41c0.227-6.034,0.215-12.206,0.018-18.524
						c-1.804-54.849-38.009-175.293-83.616-305.574c-62.065-176.933-141.59-372.032-176.413-445.865
						c-10.625-22.429-27.484-44.894-45.569-65.043l-0.062-0.048c-38.483-42.916-82.343-75.403-82.343-75.403s0.187-0.3,0.566-0.846
						c7.718-11.32,88.067-133.855,21.952-223.371c-5.635-7.616-12.299-14.999-20.26-22.06c-3.189-2.958-6.7-5.821-10.369-8.61
						c-86.905-66.071-184.158,16.817-233.183,70.322c-7.728,8.429-14.213,16.098-19.304,22.378
						c-8.107,9.92-12.576,16.293-12.576,16.293s-80.879-45.82-136.209-67.207c-5.892-2.302-11.525-4.3-16.722-5.906
						c0,0-138.315-120.852-204.16-60.06c-39.128,36.197-37.557,58.258-37.557,58.258s-0.389,0.937-0.954,2.728
						c-0.809,2.544-2.033,6.75-3.134,12.443c-0.75,3.983-1.462,8.74-1.987,14.142c-5.395,58.376,15.145,194.869,278.079,323.906
						c0,0-49.845,112.005-106.387,195.328c-0.048,0.062-0.103,0.068-0.103,0.068c-15.947,23.48-32.395,44.628-48.483,60.394
						c0,0-132.928,4.708-202.524,198.379c0,0-86.304-8.243-139.102,46.268c-26.258,27.044-53.814,88.95-53.686,162.409
						c0.026,74.472,28.544,160.735,115.734,234.337c0,0-112.701,143.24-124.898,352.323c-9.17,157.44,48.156,237.603,77.035,267.591
						c9.465,9.885,15.885,14.293,15.885,14.293l15.239,127.947c0,0-75.666,49.782-86.765,80.805
						c-11.162,30.975-30.566,148.253,22.64,190.083c0,0-34.592,52.343-29.366,96.216
						C1403.198,3328.023,1440.76,3394.02,1445.11,3430.545z"/>
				</g>
				<g style="opacity:0.6;">
					<path style="fill:#FFFFFF;" d="M1460.34,2774.804c-83.762-215.731,47.863-619.914,47.863-619.914
						s-112.701,143.24-124.898,352.323C1374.135,2664.654,1431.461,2744.816,1460.34,2774.804z"/>
				</g>
				<g style="opacity:0.6;">
					<path style="fill:#FFFFFF;" d="M1392.469,1920.553c10.536,1.137,17.012,1.812,17.012,1.812
						c82.3-367.218,502.832,88.005,502.832,88.005c-155.801-242.914-298.422-283.161-298.422-283.161
						c5.229-61.638,93.599-135.515,181.949-146.037c87.638-10.438,422.3,344.439,427.523,349.991
						c-164.275-260.816-376.375-388.009-376.375-388.009c223.07-235.089,614.388,261.102,619.507,267.667
						c-292.467-535.774-623.278-361.438-630.129-357.786c-0.048,0.062-0.103,0.068-0.103,0.068
						c-15.947,23.48-32.395,44.628-48.483,60.394c0,0-132.928,4.708-202.524,198.379c0,0-86.304-8.243-139.102,46.268
						C1419.897,1785.188,1392.34,1847.094,1392.469,1920.553z"/>
				</g>
				<g style="opacity:0.6;">
					<path style="fill:#FFFFFF;" d="M1666.661,919.659l91.505,71.531c106.005,82.596,220.917,16.293,220.917,16.293
						s371.435,192.425,422.77,260.119c47.631,62.74,289.934,679.353,324.705,768.153c0.227-6.034,0.215-12.206,0.018-18.524
						c-1.804-54.849-38.009-175.293-83.616-305.574c-62.065-176.933-141.59-372.032-176.413-445.865
						c-10.625-22.429-27.484-44.894-45.569-65.043l-0.062-0.048c-38.483-42.916-82.343-75.403-82.343-75.403s0.187-0.3,0.566-0.846
						c-110.154-71.2-203.528-107.523-203.528-107.523c60.477-95.583,146.719-127.547,205.221-137.907
						c-3.189-2.958-6.7-5.821-10.369-8.61c-86.905-66.071-184.158,16.817-233.183,70.322c-7.728,8.429-14.213,16.098-19.304,22.378
						c-8.107,9.92-12.576,16.293-12.576,16.293s-80.879-45.82-136.209-67.207c-5.892-2.302-11.525-4.3-16.722-5.906
						c0,0-138.315-120.852-204.16-60.06c-39.128,36.197-37.557,58.258-37.557,58.258s-0.389,0.937-0.954,2.728
						C1668.986,909.76,1667.762,913.966,1666.661,919.659z"/>
				</g>
				<g>
					<path style="fill:#FFC0D7;" d="M1669.805,907.201c70.885,108.082,200.685,142.958,239.742,90.751
						c17.185-22.904,21.288-54.763,19.653-85.771c-5.892-2.302-11.525-4.301-16.722-5.906c0,0-138.316-120.852-204.16-60.06
						c-39.129,36.197-37.557,58.258-37.557,58.258S1670.371,905.409,1669.805,907.201z"/>
				</g>
				<g style="opacity:0.6;">
					<path style="fill:#FFFFFF;" d="M1669.795,907.216c4.55,6.911,9.287,13.522,14.319,19.82
						c5.398-9.32,14.434-21.242,29.614-35.286c65.845-60.793,204.16,60.06,204.16,60.06c2.886,0.88,5.956,1.905,9.1,3.088
						c2.477-13.755,2.967-28.33,2.201-42.7c-5.892-2.302-11.525-4.3-16.722-5.906c0,0-138.315-120.852-204.16-60.06
						c-39.128,36.197-37.557,58.258-37.557,58.258S1670.36,905.425,1669.795,907.216z"/>
				</g>
				<g>
					<path style="fill:#3A0000;" d="M1794.902,3676.348c-8.237,0-16.27-0.068-24.143-0.205
						c-170.779-2.939-289.224-34.546-294.182-35.889c-4.846-1.313-9.102-4.238-12.063-8.296
						c-35.108-48.071-37.827-120.757-39.627-168.857c-0.459-12.246-0.854-22.822-1.704-29.961
						c-1.733-14.541-11.206-38.271-20.369-61.221c-11.648-29.18-23.691-59.346-26.767-85.171
						c-4.302-36.108,12.341-74.292,23.618-95.303c-45.767-56.172-28.381-166.021-15.74-201.104
						c10.696-29.888,59.719-67.031,84.023-84.028l-12.59-105.713c-26.394-23.105-104.929-108.154-94.099-294.683
						c10.173-174.365,86.941-303.076,117.375-347.754c-83.477-77.764-104.973-163.093-107.915-222.437
						c-4.263-86.018,27.903-160.337,59.592-192.986c44.919-46.375,109.294-53.079,139.836-53.416
						c64.773-164.272,174.5-192.239,207.434-196.973c54.363-57.229,114.063-177.747,136.152-224.529
						c-316.208-162.791-274.575-338.254-264.885-367.664c1.179-12.041,8.574-36.977,44.478-70.154
						c74.033-68.413,203.42,33.992,230.195,56.633c42.458,14.292,105.845,47.778,135.908,64.209
						c27.551-34.292,98.535-112.832,179.456-125.295c38.118-5.864,73.435,3.301,104.954,27.251
						c100.684,76.514,64.568,199.565,24.209,267.542c29.7,24.238,91.682,79.243,118.481,135.996
						c52.761,111.802,257.59,622.729,262.136,760.142c4.309,130.42-68.003,218.247-111.409,249.58
						c-25.579,18.462-197.729,185.078-273.713,319.268c-59.502,104.966-94.092,217.52-105.603,258.574
						c50.557,34.351,108.071,127.871,124.006,233.345c15.535,103.154-12.212,186.191-22.097,211.44
						c36.34,130.952,29.658,222.681,29.351,226.587c-0.574,7.29-4.714,13.818-11.06,17.446
						C2172.931,3650.024,1951.852,3676.348,1794.902,3676.348z M1495.956,3599.561c28.953,6.943,135.537,30.122,276.841,32.427
						c149.397,2.427,368.906-18.652,572.771-131.631c0.474-28.242-1.421-106.289-30.295-206.943
						c-1.453-5.063-1.05-10.474,1.135-15.259c0.364-0.811,38.135-86.187,21.851-194.312
						c-17.083-113.062-83.628-195.918-114.512-208.628c-10.103-4.155-15.649-15.073-13.052-25.684
						c1.479-6.05,37.166-149.717,114.407-285.977c77.131-136.221,250.967-307.817,286.296-333.32
						c33.823-24.414,96.812-100.205,93.108-212.29c-4.082-123.413-197.275-614.202-257.93-742.739
						c-30.449-64.482-120.244-131.501-121.147-132.173c-9.641-7.144-11.816-20.676-4.902-30.481
						c4.128-5.889,100.317-145.732-3.42-224.565c-21.897-16.641-45.251-22.778-71.416-18.774
						c-83.262,12.761-161.489,121.873-162.271,122.974c-6.558,9.246-19.072,12.038-28.928,6.45
						c-0.969-0.549-97.6-55.198-148.655-71.292c-2.91-0.915-5.598-2.427-7.896-4.433c-32.039-27.927-132.9-99.004-174.629-60.452
						c-24.839,22.952-29.509,37.673-30.325,41.316c0.725,3.75-0.159,5.086-1.765,9.031c-0.566,1.472-15.352,41.213,7.629,100.369
						c21.943,56.484,83.76,141.316,253.643,224.685c10.664,5.232,15.281,17.961,10.452,28.813
						c-3.415,7.673-84.492,188.76-159.68,262.573c-3.938,3.867-9.18,6.118-14.695,6.313c-4.685,0.239-119.36,8.025-182.515,183.772
						c-3.416,9.502-12.859,15.483-22.891,14.521c-0.71-0.068-76.589-6.343-121.133,39.646
						c-21.086,21.726-51.038,82.261-47.183,160.044c2.678,54.07,23.526,133.43,107.617,204.451
						c9.094,7.681,10.469,21.187,3.108,30.542c-1.069,1.362-108.586,140.771-120.207,339.946
						c-11.174,192.471,79.707,259.766,83.581,262.534c5.054,3.613,8.486,9.282,9.221,15.454l15.239,127.949
						c0.991,8.306-2.803,16.465-9.79,21.064c-33.435,22.021-72.805,54.966-78.11,69.79
						c-10.376,28.794-25.393,133.135,15.491,165.273c9.041,7.104,11.118,19.956,4.778,29.546
						c-8.357,12.734-29.333,52.251-25.859,81.431c2.39,20.059,13.34,47.485,23.931,74.014c10.691,26.777,20.786,52.07,23.206,72.378
						c1.062,8.916,1.489,20.322,1.985,33.535C1470.551,3501.831,1472.792,3561.733,1495.956,3599.561z M1692.795,902.876"/>
				</g>
				<g>
					<path style="fill:#5B9DFC;" d="M1439.432,3406.692c2.772,8.792,4.848,16.887,5.678,23.853
						c3.024,25.392,0.563,79.915,12.101,129.155c5.094,21.753,12.906,42.514,25.133,59.246c0,0,475.152,128.79,884.825-105.385
						c0,0,7.374-93.597-30.671-226.225c0,0,41.148-90.222,23.596-206.77c-8.466-55.668-28.398-105.8-51.614-144.75
						c-13.148-22.128-27.255-40.638-40.93-54.583c-12.625-13.069-24.876-22.066-35.407-26.43c0,0,16.348,113.91-367.547,159.633
						c-356.913,42.509-373.131-97.391-373.131-97.391s-75.666,49.782-86.765,80.805c-3.552,9.879-7.997,28.596-10.571,50.873
						c-3.099,26.288-3.67,57.448,2.596,84.845c5.017,22.04,14.473,41.66,30.615,54.366c0,0-2.453,3.685-5.984,10.001
						c-9.622,17.276-27.216,54.023-23.382,86.215c1.11,9.323,3.674,19.641,7.133,30.465
						C1414.615,3344.962,1430.665,3379.315,1439.432,3406.692z"/>
				</g>
				<g style="opacity:0.6;">
					<path style="fill:#FFFFFF;" d="M1396.723,3133.567c16.737-119.129,77.456-138.431,77.456-138.431
						s12.195,102.391,391.253,72.094c272.333-21.812,369.206-127.96,402.117-185.998c-12.625-13.069-24.876-22.066-35.407-26.43
						c0,0,16.348,113.91-367.547,159.633c-356.913,42.509-373.131-97.391-373.131-97.391s-75.666,49.782-86.765,80.805
						c-3.552,9.879-7.997,28.596-10.571,50.873C1391.028,3075.01,1390.457,3106.17,1396.723,3133.567z"/>
				</g>
				<g>
					<path style="fill:#3A0000;" d="M1794.904,3676.348c-8.237,0-16.272-0.068-24.146-0.205
						c-170.779-2.939-289.224-34.546-294.182-35.889c-4.846-1.313-9.102-4.238-12.061-8.296
						c-35.11-48.071-37.83-120.757-39.629-168.857c-0.459-12.246-0.854-22.822-1.704-29.961l0,0
						c-1.733-14.541-11.206-38.271-20.369-61.221c-11.648-29.18-23.691-59.346-26.767-85.171
						c-4.302-36.108,12.341-74.292,23.618-95.303c-45.767-56.172-28.381-166.021-15.74-201.104
						c12.918-36.099,81.741-82.778,95.408-91.768c6.56-4.316,14.88-5.352,21.917-1.86c6.953,3.452,11.531,9.78,12.148,17.49
						c1.279,5.854,30.264,116.216,348.596,78.276c183.335-21.836,269.011-59.072,308.601-86.465
						c36.123-24.99,39.27-45.137,39.541-48.701c-1.794-7.861,1.118-15.024,7.268-20.381c6.306-5.498,15.42-5.767,23.154-2.578
						c53.911,22.183,123.591,125.078,141.389,242.896c15.537,103.154-12.212,186.191-22.097,211.44
						c36.34,130.952,29.658,222.681,29.351,226.587c-0.574,7.29-4.714,13.818-11.06,17.446
						C2172.931,3650.024,1951.852,3676.348,1794.904,3676.348z M1495.956,3599.561c28.953,6.943,135.537,30.122,276.841,32.427
						c149.397,2.427,368.906-18.652,572.771-131.631c0.474-28.242-1.421-106.289-30.295-206.943
						c-1.453-5.063-1.05-10.474,1.135-15.259c0.366-0.811,38.135-86.187,21.851-194.312
						c-13.757-91.064-59.607-162.534-93.064-193.54c-2.644,5.059-6.023,10.439-10.339,16.064
						c-33.237,43.281-123.999,100.972-367.637,129.99c-167.993,20-286.599,3.755-352.527-48.311
						c-16.118-12.729-26.519-25.767-33.215-37.021c-26.741,19.897-51.812,42.632-55.967,54.248
						c-10.376,28.794-25.396,133.13,15.491,165.273c9.041,7.104,11.118,19.956,4.778,29.546
						c-8.357,12.734-29.333,52.251-25.859,81.431c2.39,20.059,13.34,47.485,23.931,74.014c10.688,26.772,20.786,52.07,23.206,72.378
						l0,0c1.062,8.916,1.489,20.322,1.985,33.535C1470.551,3501.831,1472.792,3561.733,1495.956,3599.561z M2210.285,2857.925
						L2210.285,2857.925L2210.285,2857.925z"/>
				</g>
				<g>
					<path style="fill:#3A0000;" d="M1437.271,3168.179c112.446,55.598,239.55,84.658,365.22,78.691
						c42.251-1.996,84.255-9.102,125.272-20.25c2.996-0.87,6.148,0.894,6.961,3.91c0.778,2.861-0.827,5.814-3.59,6.766
						c-41.01,14.033-83.642,24.099-126.979,28.944c-86.896,10.263-175.396,2.626-260.513-17.379
						c-43.109-10.41-85.457-23.297-126.218-41.207C1390.366,3194.157,1410.115,3154.485,1437.271,3168.179L1437.271,3168.179z"/>
				</g>
				<g>
					<path style="fill:#3A0000;" d="M2353.615,3301.297c-60.598,61.692-147.938,96.644-234.221,94.738
						c-10.645,0.277-25.22-1.892-35.931-2.51c-9.328-0.896-9.01-14.776,0.456-15.103c10.582-0.489,24.591,0.103,34.91-1.17
						c0,0,16.902-1.864,16.902-1.864c27.766-3.817,55.225-11.93,80.514-23.501c39.292-18.02,76.05-44.751,103.156-78.544
						C2338.468,3247.534,2375.103,3277.228,2353.615,3301.297L2353.615,3301.297z"/>
				</g>
				<g>
					<path style="fill:#3A0000;" d="M1488.119,2770.458c32.214,23.214,67.639,44.425,104.336,59.744
						c15.379,6.393,7.884,29.32-8.257,25.438c-42.106-11.065-81.356-27.697-119.845-47.934
						C1437.381,2791.576,1462.078,2752.784,1488.119,2770.458L1488.119,2770.458z"/>
				</g>
				<g>
					<path style="fill:#3A0000;" d="M1971.271,2322.222c-7.418,39.791-49.189,65.17-87.448,68.531
						c-49.994,5.389-98.594-11.177-144.738-26.508c-11.336-3.78-22.52-7.526-34.713-10.235c2.927-1.055,5.947-1.859,9.026-2.789
						c44.376-8.709,91.441,3.147,134.89,6.673C1893.32,2362.934,1938.063,2358.367,1971.271,2322.222L1971.271,2322.222z"/>
				</g>
				<g>
					<path style="fill:#3A0000;" d="M2032.423,2290.837c41.399-8.998,84.9-4.08,125.181,8.26
						c14.957,4.713,29.095,11.316,44.765,12.154c33.9,2.824,66.386-11.693,94.49-30.432c10.966-7.349,21.477-15.602,31.712-25.254
						c-2.109,6.718-4.997,13.304-8.549,19.427c-25.69,45.055-78.81,77.217-131.792,67.795c-14.456-2.349-28.046-8.631-41.248-14.188
						C2109.501,2313.228,2072.395,2302.016,2032.423,2290.837L2032.423,2290.837z"/>
				</g>
				<g>
					<path style="fill:#3A0000;" d="M2722.303,2079.275c-7.412,47.632-62.101,67.865-104.351,73.501
						c-0.001,0,11.857-7.483,11.857-7.483c-23.494,40.962-70.881,67.009-117.805,64.404c-21.375-1.155-41.095-6.934-62.301-9.121
						c-20.33-2.745-40.983-5.211-61.956-8.437c20.4-6.028,41.243-9.577,62.374-11.558c20.252-2.534,41.667-0.007,61.751-0.901
						c37.198-1.736,71.584-21.33,93.05-51.261c2.574-3.535,6.556-5.521,10.605-5.761l14.963-0.808
						C2664.417,2118.686,2702.781,2110.285,2722.303,2079.275L2722.303,2079.275z"/>
				</g>
				<g>
					<path style="fill:#3A0000;" d="M2459.132,1815.135c-39.179-59.251-80.927-117.627-126.192-172.289
						c-44.741-54.121-94.045-103.349-153.68-140.233c-82.384-53.797-188.68-88.314-281.712-43.439
						c-25.951,11.797-50.644,29.057-72.052,48.105c0,0-9.475,8.43-9.475,8.43c-21.168,19.514-50.8-9.892-31.267-31.219
						c122.647-130.973,281.107-116.239,418.902-18.522c61.61,41.14,112.701,96.846,155.585,156.331
						c43.113,58.685,80.87,120.27,114.763,184.274C2478.737,1816.082,2465.374,1824.486,2459.132,1815.135L2459.132,1815.135z"/>
				</g>
				<g>
					<path style="fill:#3A0000;" d="M2238.389,1977.039c-95.056-139.504-238.974-330.112-384.483-415.274
						c-22.695-12.553-46.499-22.528-70.033-26.542c-12.139-1.923-20.398-13.423-18.319-25.541
						c2.069-12.264,13.97-20.423,26.155-17.943c85.164,18.808,154.71,82.573,214.484,141.683
						c97.128,99.925,179.184,212.609,253.747,330.008C2268.364,1977.584,2247.906,1991.072,2238.389,1977.039L2238.389,1977.039z"/>
				</g>
				<g>
					<path style="fill:#3A0000;" d="M1929.769,2054.732c-73.886-103.308-184.186-243.557-295.929-303.949
						c-17.054-8.623-34.76-15.088-51.586-17.037c-12.184-1.326-20.974-12.338-19.557-24.514c1.411-12.51,13.171-21.354,25.58-19.258
						c24.383,4.058,45.73,13.525,65.197,24.444c56.2,32.881,101.691,79.009,144.486,126.97
						c55.427,63.323,104.597,130.792,149.712,201.73C1954.737,2054.875,1937.869,2066.207,1929.769,2054.732L1929.769,2054.732z"/>
				</g>
				<g>
					<path style="fill:#3A0000;" d="M1466.676,1924.897c29.217,38.844,54.692,80.108,79.676,121.611
						c24.893,41.715,48.401,83.448,68.253,128.019c4.268,9.599-7.849,18.483-15.689,11.544
						c-37.347-33.284-65.318-74.345-90.952-116.554c-25.156-42.218-47.896-85.485-65.184-131.68
						C1437.559,1923.055,1457.24,1912.468,1466.676,1924.897L1466.676,1924.897z"/>
				</g>
				<g>
					<path style="fill:#3A0000;" d="M1508.198,2176.963c-4.59,0-9.221-1.426-13.183-4.38c-9.78-7.29-11.802-21.123-4.517-30.908
						c0.823-1.104,20.5-27.412,48.279-54.956c8.664-8.589,22.651-8.525,31.243,0.132c8.589,8.667,8.53,22.651-0.134,31.245
						c-25.322,25.107-43.775,49.736-43.958,49.98C1521.589,2173.892,1514.936,2176.963,1508.198,2176.963z"/>
				</g>
				<g>
					<path style="fill:#3A0000;" d="M2148.422,1480.342c-6.641,0-13.206-2.981-17.556-8.66
						c-25.542-33.345-33.179-71.011-35.435-92.251c-67.19-25.183-162.173-101.042-166.494-104.509
						c-9.517-7.637-11.04-21.538-3.406-31.055c7.634-9.524,21.538-11.042,31.055-3.408c29.785,23.889,117.6,88.647,165.62,101.252
						c9.897,2.598,16.714,11.653,16.475,21.882c-0.005,0.361-0.366,45.151,27.263,81.223c7.419,9.685,5.581,23.552-4.106,30.972
						C2157.831,1478.857,2153.107,1480.342,2148.422,1480.342z"/>
				</g>
				<g>
					<path style="fill:#3A0000;" d="M2338.561,1147.38c-3.511,0-7.073-0.84-10.386-2.61l-273.191-145.864
						c-10.764-5.747-14.829-19.128-9.082-29.893c5.745-10.762,19.133-14.829,29.893-9.082l273.191,145.864
						c10.764,5.747,14.829,19.128,9.082,29.893C2354.091,1143.137,2346.454,1147.38,2338.561,1147.38z"/>
				</g>
				<g>
					<path style="fill:#3A0000;" d="M1691.73,899.091c19.737,39.484,52.298,74.495,93.715,91.301
						c12.821,4.805,7.16,23.793-6.169,20.703c-48.337-11.152-89.729-43.061-119.861-81.736c-2.222-2.884-4.368-5.795-6.741-9.468
						C1636.439,892.316,1677.868,870.193,1691.73,899.091L1691.73,899.091z"/>
				</g>
				<g>
					<path style="fill:#3A0000;" d="M1926.798,889.453c58.033,45.419,23.351,132.083-44.134,141.251
						c-18.32,2.496-35.546,0.119-52.421-7.192c-4.339-1.945-6.28-7.038-4.336-11.377c1.336-2.981,4.159-4.83,7.203-5.065
						c30.764-1.047,65.401-13.45,73.906-45.42c4.318-13.516-0.573-26.478-8.431-37.636c0,0-0.454-0.668-0.454-0.668
						c-0.051-0.143-0.4-0.534,0.023-0.251C1876.509,903.509,1903.978,871.2,1926.798,889.453L1926.798,889.453z"/>
				</g>
			</g>
			<g>
				<path style="fill:#3A0000;" d="M2009.225,763.889c-0.242,0-0.486-0.005-0.728-0.012c-6.001-0.198-11.66-2.827-15.679-7.285
					c-0.925-1.018-51.929-56.699-109.783-76.06c-73.555-24.617-123.113-70.872-139.546-130.249
					c-14.231-51.423-0.798-107.747,35.933-150.669c44.729-52.268,106.423-55.435,149.236-40.967
					c28.603,9.663,52.676,27.134,68.43,40.767c12.783-15.813,32.927-36.121,59.561-48.682
					c52.571-24.802,128.63-19.997,180.022,46.658c29.06,37.69,40.588,87.114,30.84,132.205c-7.585,35.09-31.96,85.059-105,123.845
					c-62.61,33.247-99.487,66.858-137.886,104.194C2020.497,761.65,2014.968,763.889,2009.225,763.889z M1882.636,395.356
					c-20.718,0-47.065,6.604-69.643,32.986c-27.566,32.212-37.378,72.363-26.919,110.156c12.39,44.768,51.807,80.33,110.986,100.134
					c48.25,16.147,90.503,51.387,112.512,72.185c35.705-33.813,73.171-65.049,132.217-96.401
					c46.611-24.753,74.38-56.431,82.537-94.158c8.281-38.303-6.267-74.648-22.644-95.891
					c-38.894-50.444-92.283-49.666-126.182-33.674c-34.436,16.243-55.735,52.983-55.94,53.35
					c-3.516,6.27-9.861,10.439-17.012,11.174c-7.151,0.752-14.209-2.053-18.928-7.476c-0.268-0.305-30.239-34.104-69.102-47.234
					C1908.718,398.547,1897.038,395.356,1882.636,395.356z"/>
			</g>
		</g>
		<g style="opacity:0.2;">
			<path style="fill:#3A0000;" d="M2403.864,1688.908c-67.794-169.465-226.991-325.541-226.991-325.541
				c113.03-13.462,108.148-33.905,108.148-33.905c-139.924-43.293-325.079-159.068-325.079-159.068
				c-119.761-38.853-229.498-154.655-295.267-236.593c-5.395,58.376,15.145,194.869,278.079,323.906
				c0,0-75.867,170.446-146.647,247.233c29.684-29.566,134.48-123.364,234.39-88.209
				C2104.398,1442.747,2293.435,1531.806,2403.864,1688.908z"/>
		</g>
		<g style="opacity:0.2;">
			<path style="fill:#3A0000;" d="M1460.34,2774.804c62.224,40.033,129.196,225.948,194.087,233.738
				c252.026,30.442,478.663-57.01,478.663-57.01c147.756-538.203,398.552-649.78,425.349-642.404
				c31.401-31.494,55.994-53.835,65.88-60.964c30.73-22.182,106.527-101.68,102.257-230.933
				c-1.804-54.849-38.009-175.293-83.616-305.574c189.392,747.226-161.167,89.833-211.795,20.609
				c48.196,85.699,191.381,366.047,74.042,403.104c-71.988,22.757-187.404-257.004-323.404-396.71
				c-132.329-135.971-233.051-242.39-381.628-226.641c125.345,80.126,374.964,266.424,505.106,547.936
				c136.507,295.27-136.83,260.08-246.372,5.816c-54.818-127.293-228.114-323.294-447.605-415.4
				c-14.449,22.523-14.006,27.643-25.093,58.776c119.33,75.392,309.692,226.477,394.282,462.243
				c56.439,157.246-106.559,167.26-223.973-18.599c-91.986-145.615-235.415-349.567-355.416-303.571
				c-21.272,85.241-9.908,206.808,107.099,305.67c0,0-74.971,95.307-109.168,243.882c28.169-108.589,91.454-183.871,155.621-176.552
				c76.243,8.773,124.885,130.906,108.634,272.782c-16.251,141.876-91.276,249.816-167.574,241.049
				c-73.533-8.428-121.359-122.315-110.112-257.644c-0.932,9.455-1.734,19.062-2.298,28.807
				C1374.135,2664.654,1431.461,2744.816,1460.34,2774.804z M2096.638,2498.842c17.294-40.66,49.959-65.742,72.872-55.956
				c22.907,9.73,27.444,50.627,10.157,91.342c-17.349,40.667-50.014,65.749-72.927,55.963
				C2083.833,2580.46,2079.296,2539.564,2096.638,2498.842z M1792.621,2520.813c22.886-53.952,74.117-83.803,114.47-66.751
				c40.36,17.107,54.507,74.713,31.621,128.666c-22.886,53.952-74.116,83.803-114.415,66.744
				C1783.937,2632.364,1769.79,2574.758,1792.621,2520.813z"/>
		</g>
		<g style="opacity:0.2;">
			<path style="fill:#3A0000;" d="M2431.164,1732.265c-8.352-15.023-17.524-29.449-27.301-43.358
				c0.885,2.286,1.761,4.518,2.64,6.749C2406.503,1695.657,2415.948,1711.441,2431.164,1732.265z"/>
		</g>
		<g style="opacity:0.2;">
			<path style="fill:#3A0000;" d="M1788.325,1512.93c2.391-2.343,4.817-4.857,7.284-7.486
				C1791.82,1509.121,1789.359,1511.806,1788.325,1512.93z"/>
		</g>
		<g>
			<path style="fill:#3A0000;" d="M2727.67,2124.341"/>
		</g>
		<g style="opacity:0.2;">
			<path style="fill:#3A0000;" d="M2338.572,1125.298c0,0,91.883-130.304,22.519-224.217
				c-33.756,63.089-107.831,129.034-263.812,39.653c-7.728,8.429-14.213,16.098-19.304,22.378l342.941,237.589
				C2382.432,1157.784,2338.572,1125.298,2338.572,1125.298z"/>
		</g>
		<g style="opacity:0.2;">
			<path style="fill:#3A0000;" d="M1457.211,3559.7c5.094,21.753,12.906,42.514,25.133,59.246c0,0,475.152,128.79,884.825-105.385
				c0,0,3.733-47.11-7.725-121.834c-196.39,124.731-275.382-5.76-275.382-5.76c146.272-11.141,199.581-38.997,258.749-75.522
				c-1.956-7.554-4.042-15.259-6.312-23.11c0,0,41.148-90.222,23.596-206.77c-8.466-55.668-28.398-105.8-51.614-144.75
				c-10.737,63.018-41.462,140.818-123.788,186.054c-143.085,78.669-636.311,139.027-790.565-73.147
				c-5.592,47.387-2.994,110.762,33.211,139.211c0,0-2.453,3.685-5.984,10.001c107.791,45.285,331.737,113.167,581.762,35.276
				c0,0-137.441,239.073-598.011,81.404c9.51,30.348,25.56,64.701,34.327,92.079c60.246,26.698,126.746,42.861,195.979,39.009
				C1969.428,3427.165,1736.858,3566.606,1457.211,3559.7z"/>
		</g>
		<g style="opacity:0.2;">
			<path style="fill:#3A0000;" d="M1890.033,659.561c64.592,21.619,119.201,82.248,119.201,82.248
				c42.37-41.2,79.96-74.432,142.94-107.908c20.298-10.761,36.857-22.578,50.11-35.058
				c-103.168,5.669-292.036-13.329-377.006-209.782c-10.326,6.236-20.135,14.468-29.068,24.931
				C1730.83,490.36,1749.091,612.385,1890.033,659.561z"/>
		</g>
	</g>
</g>
</svg>
