<?xml version="1.0" standalone="no"?>
<!DOCTYPE svg PUBLIC "-//W3C//DTD SVG 20010904//EN"
 "http://www.w3.org/TR/2001/REC-SVG-20010904/DTD/svg10.dtd">
<svg version="1.0" xmlns="http://www.w3.org/2000/svg"
 width="512.000000pt" height="512.000000pt" viewBox="0 0 512.000000 512.000000"
 preserveAspectRatio="xMidYMid meet">

<g transform="translate(0.000000,512.000000) scale(0.100000,-0.100000)"
fill="#000000" stroke="none">
<path d="M3476 4555 c-37 -8 -110 -35 -162 -60 -73 -35 -111 -62 -181 -129
l-88 -84 -161 6 -162 5 -11 54 c-15 75 -37 117 -82 158 -34 30 -46 35 -89 35
-61 0 -120 -27 -150 -70 l-22 -31 -19 30 c-29 48 -86 81 -142 81 -100 0 -148
-52 -188 -206 -42 -162 -72 -196 -291 -325 -240 -142 -387 -288 -516 -512 -38
-66 -52 -83 -63 -76 -8 5 -36 16 -64 24 -242 74 -503 8 -685 -175 -79 -78
-138 -174 -177 -285 -25 -74 -27 -92 -27 -230 -1 -144 1 -154 32 -245 42 -120
96 -212 175 -297 228 -243 544 -305 819 -161 l57 31 85 -85 c103 -103 203
-174 340 -239 160 -76 267 -101 468 -106 l167 -5 5 -42 c3 -22 12 -99 21 -170
9 -71 18 -140 21 -152 5 -18 -1 -26 -25 -39 -51 -26 -86 -88 -85 -154 0 -33 7
-69 17 -88 24 -45 79 -84 128 -90 36 -5 43 -11 56 -42 61 -147 136 -242 226
-285 106 -51 245 -53 385 -5 152 52 258 170 270 301 3 38 9 57 16 54 134 -58
278 -61 391 -8 82 39 173 124 208 196 49 100 45 211 -10 276 -14 17 -65 51
-113 75 -92 46 -130 82 -130 121 l0 24 524 0 c576 0 544 -4 525 62 -14 51 -11
208 6 266 l16 52 58 0 c72 0 82 10 71 70 -18 101 -22 199 -9 290 20 155 20
154 -22 158 -34 3 -37 6 -43 40 -11 68 -6 202 10 273 9 38 13 76 10 84 -4 11
-23 15 -76 15 -38 0 -70 3 -70 6 0 10 42 67 84 113 l40 44 -44 40 c-25 21 -70
53 -102 70 -32 18 -58 34 -58 37 0 3 16 14 35 24 140 76 235 305 204 495 -40
253 -233 363 -471 269 l-81 -32 -51 27 c-28 14 -62 30 -76 35 -21 8 -28 20
-38 70 -28 138 -132 281 -253 349 -122 70 -295 97 -433 68z m308 -74 c83 -30
137 -63 196 -123 53 -54 115 -166 126 -229 l6 -36 -56 -7 c-110 -14 -215 -88
-267 -188 -11 -21 -21 -38 -23 -38 -3 0 -31 28 -63 61 -126 132 -299 241 -491
309 l-103 36 70 66 c74 71 190 135 291 163 76 21 235 14 314 -14z m-1517 -7
c30 -19 55 -69 57 -113 1 -29 5 -37 23 -39 16 -2 26 7 44 43 63 126 158 157
222 73 84 -110 51 -315 -70 -429 -56 -53 -65 -82 -27 -87 49 -7 194 189 194
263 0 11 4 25 8 31 12 20 103 26 212 14 281 -28 523 -143 723 -342 l87 -88 0
-93 c0 -152 47 -281 135 -374 31 -32 43 -52 39 -65 -7 -24 -55 -59 -134 -98
-36 -18 -80 -43 -98 -57 -40 -30 -72 -91 -72 -137 0 -28 -4 -35 -22 -38 -34
-5 -87 -115 -94 -198 -5 -53 -2 -78 18 -137 l24 -73 -63 0 c-62 0 -63 -1 -92
-41 -45 -62 -65 -132 -66 -229 0 -47 4 -98 8 -113 7 -27 6 -28 -15 -21 -46 15
-165 7 -232 -16 -111 -37 -321 -190 -321 -234 0 -38 30 -27 123 48 51 40 122
88 158 106 174 86 344 51 413 -85 37 -71 36 -186 -1 -267 -46 -99 -163 -205
-305 -277 -72 -36 -81 -47 -59 -69 15 -15 21 -14 73 12 131 63 256 164 308
245 l25 41 85 0 c84 0 85 0 85 -25 0 -63 49 -114 162 -170 105 -52 123 -76
123 -163 0 -82 -26 -140 -94 -206 -72 -70 -139 -99 -242 -104 -102 -5 -171 12
-242 59 -63 42 -81 35 -70 -28 11 -69 6 -117 -18 -173 -42 -98 -149 -168 -301
-198 -67 -13 -92 -14 -150 -4 -80 14 -114 30 -168 78 -50 45 -93 113 -124 196
-43 113 -110 473 -131 704 l-7 70 104 27 c108 29 133 43 122 70 -8 22 -18 22
-118 -8 -388 -112 -814 3 -1105 299 l-75 75 22 24 c26 27 27 40 8 56 -12 10
-26 3 -73 -35 -339 -276 -840 -95 -1000 361 -26 74 -28 92 -28 230 0 138 2
156 27 223 92 253 307 419 567 439 90 6 168 -7 254 -42 34 -15 69 -27 76 -28
9 -1 34 33 64 88 128 236 269 379 518 526 222 131 269 185 314 354 30 115 44
141 88 161 35 15 69 11 104 -12z m1958 -485 c40 -21 49 -31 47 -49 -3 -21 13
-50 29 -50 5 0 20 13 35 29 39 44 137 84 217 89 175 11 276 -122 265 -348 -4
-82 -10 -107 -37 -167 -20 -43 -51 -88 -79 -116 -118 -116 -370 -167 -567
-117 -139 35 -225 101 -280 214 -103 210 -50 440 120 523 70 33 177 30 250 -8z
m-64 -805 c81 -16 186 -16 295 2 l42 6 22 -58 c36 -97 9 -159 -70 -159 -45 0
-84 31 -106 83 -10 26 -19 33 -36 30 -33 -4 -30 -66 6 -113 l27 -35 -41 0
c-33 0 -50 7 -83 35 -22 19 -48 35 -57 35 -9 0 -31 -17 -48 -39 -51 -64 -151
-94 -183 -55 -20 25 -14 81 15 124 32 48 32 56 4 71 -19 10 -25 8 -50 -22 -16
-19 -34 -52 -40 -73 -7 -22 -27 -55 -46 -73 -28 -28 -40 -34 -69 -31 -52 4
-79 43 -64 90 16 47 40 67 150 123 66 34 101 59 120 85 l26 37 52 -23 c28 -13
89 -31 134 -40z m499 -15 c30 -16 66 -38 79 -48 l24 -18 -42 -53 c-23 -29 -49
-66 -57 -82 -13 -25 -20 -28 -65 -28 l-50 0 22 29 c38 52 36 119 -6 225 -7 16
-5 17 16 11 13 -4 49 -20 79 -36z m-776 -294 c19 -28 82 -49 123 -39 15 4 45
15 65 25 27 14 59 19 122 19 l84 0 -20 -62 c-24 -76 -19 -164 12 -235 11 -25
20 -47 20 -49 0 -3 -154 -3 -342 -2 l-342 3 -24 47 c-36 70 -40 166 -10 238
27 63 57 79 97 49 38 -30 83 -33 135 -10 25 11 46 25 46 30 0 19 17 12 34 -14z
m916 -7 c0 -7 -3 -30 -6 -50 l-7 -38 -196 -2 -196 -3 0 -25 0 -25 193 -3 c183
-2 192 -3 192 -22 0 -18 -9 -20 -157 -22 -150 -3 -158 -4 -158 -23 0 -19 8
-20 156 -23 174 -3 168 -1 169 -74 l0 -28 -213 0 -214 0 -28 52 c-39 72 -45
162 -15 241 l21 57 230 0 c177 0 229 -3 229 -12z m-620 -402 c0 -2 -10 -25
-22 -52 -33 -74 -32 -198 3 -281 l27 -63 -382 0 c-209 0 -386 4 -393 8 -6 4
-19 34 -28 66 -25 85 -17 193 19 269 l27 57 375 0 c206 0 374 -2 374 -4z m684
-9 c-2 -7 -8 -49 -12 -92 l-7 -80 -246 -3 c-194 -2 -248 -5 -252 -16 -13 -32
8 -36 253 -38 224 -3 245 -4 248 -20 3 -17 -15 -18 -263 -18 -228 0 -266 -2
-271 -15 -4 -8 -1 -22 6 -30 10 -13 55 -15 276 -15 l264 0 0 -30 0 -30 -302 2
-302 3 -31 59 c-27 53 -30 69 -30 145 0 74 4 93 28 139 l27 52 310 0 c249 0
308 -3 304 -13z m-619 -464 c-44 -100 -56 -198 -36 -271 l10 -32 -350 0 -349
0 7 28 c5 15 8 65 8 112 -1 68 -5 93 -23 127 -12 23 -22 45 -22 48 0 3 171 5
381 5 359 0 381 -1 374 -17z m480 0 c-4 -10 -9 -33 -12 -50 l-6 -33 -167 0
c-137 0 -170 -3 -180 -15 -10 -12 -10 -18 0 -30 10 -12 43 -15 176 -15 139 0
164 -2 164 -15 0 -13 -25 -15 -164 -15 -141 0 -165 -2 -170 -16 -3 -9 -4 -20
0 -25 3 -5 79 -9 170 -9 149 0 164 -2 164 -17 0 -10 3 -28 6 -40 l6 -23 -215
0 -215 0 -11 31 c-26 74 -7 194 39 260 l21 29 201 0 c187 0 200 -1 193 -17z
m-2302 -901 l23 -112 -22 0 c-28 0 -81 49 -90 84 -10 40 3 90 32 121 14 15 27
25 29 23 2 -2 15 -54 28 -116z"/>
<path d="M3159 3171 c-25 -25 -29 -37 -29 -81 0 -46 4 -56 34 -86 69 -69 166
-29 166 69 0 104 -105 164 -171 98z"/>
<path d="M2675 3137 c-49 -28 -110 -107 -131 -171 -43 -129 2 -272 109 -344
57 -39 99 -52 168 -52 112 0 232 88 260 193 18 67 7 165 -27 227 -74 136 -266
211 -379 147z m202 -62 c155 -78 203 -261 99 -374 -139 -150 -388 -44 -389
165 0 49 32 136 65 174 57 67 136 79 225 35z"/>
<path d="M2195 2776 c-13 -13 -27 -36 -31 -51 -16 -63 45 -155 102 -155 59 0
104 50 104 114 0 24 -35 85 -59 103 -28 22 -89 16 -116 -11z"/>
<path d="M2914 2424 c-35 -38 -74 -45 -113 -18 -21 15 -24 15 -38 1 -22 -22
-9 -45 34 -63 68 -29 146 -3 177 60 30 61 -11 75 -60 20z"/>
<path d="M4086 3638 c-28 -39 -13 -98 24 -98 39 0 54 74 22 103 -24 22 -28 21
-46 -5z"/>
<path d="M4343 3618 c-26 -33 -20 -91 10 -110 36 -22 64 73 31 106 -19 19 -28
20 -41 4z"/>
<path d="M4198 3553 c6 -2 18 -2 25 0 6 3 1 5 -13 5 -14 0 -19 -2 -12 -5z"/>
<path d="M4300 3526 c0 -2 8 -10 18 -17 15 -13 16 -12 3 4 -13 16 -21 21 -21
13z"/>
<path d="M4160 3495 c-22 -27 -4 -45 45 -45 33 0 47 5 52 16 14 36 -71 61 -97
29z"/>
<path d="M4342 3455 c0 -16 2 -22 5 -12 2 9 2 23 0 30 -3 6 -5 -1 -5 -18z"/>
<path d="M4110 3426 c0 -2 8 -10 18 -17 15 -13 16 -12 3 4 -13 16 -21 21 -21
13z"/>
<path d="M4264 2345 c-14 -35 3 -45 74 -45 73 0 100 14 88 45 -8 22 -154 22
-162 0z"/>
<path d="M4553 2344 c-10 -27 12 -35 88 -32 68 3 74 5 77 26 3 21 1 22 -78 22
-64 0 -82 -3 -87 -16z"/>
</g>
</svg>
